Coordinates
version=1
nRows=26
nColumns=22
inDegrees=yes

Units are S.I. units (second, meters, Newtons, ...)
If the header above contains a line with 'inDegrees', this indicates whether rotational values are in degrees (yes) or radians (no).

endheader
time	pelvis_tilt	pelvis_list	pelvis_rotation	pelvis_tx	pelvis_ty	pelvis_tz	hip_flexion_r	hip_adduction_r	hip_rotation_r	knee_angle_r	ankle_angle_r	subtalar_angle_r	hip_flexion_l	hip_adduction_l	hip_rotation_l	knee_angle_l	ankle_angle_l	subtalar_angle_l	lumbar_extension	lumbar_bending	lumbar_rotation
      0.01000000	      0.39277802	     -0.05373075	    -10.95196378	     -0.81949107	      0.90431020	     -0.35139346	     -7.49741229	      1.25541328	     -4.54225337	      0.51109463	     15.19000383	     -2.37726568	     -1.68583083	     -2.63195787	    -13.82313217	    -13.80503523	     17.52785286	      0.37392645	     -4.04438202	     -2.13816266	      4.10925708
      0.02000000	      0.41929409	     -0.06333616	    -10.95006631	     -0.81952178	      0.90436859	     -0.35172678	     -7.48289462	      1.24139780	     -4.54450605	      0.44635445	     15.15737510	     -2.39499292	     -1.70646345	     -2.61601460	    -13.83148071	    -13.81098809	     17.52714496	      0.37309585	     -4.07019719	     -2.13138561	      4.09038523
      0.03000000	      0.44540452	     -0.08053002	    -10.94945917	     -0.81955328	      0.90442865	     -0.35210740	     -7.45308265	      1.23280413	     -4.53917146	      0.35214194	     15.15228767	     -2.41787126	     -1.73449707	     -2.60265099	    -13.83116249	    -13.80458604	     17.52726202	      0.37035259	     -4.09518893	     -2.11795415	      4.07812853
      0.04000000	      0.47255588	     -0.09663503	    -10.95157858	     -0.81958288	      0.90448979	     -0.35253683	     -7.40718167	      1.21822569	     -4.53320996	      0.22788736	     15.16376071	     -2.44872969	     -1.76778547	     -2.58295926	    -13.82701314	    -13.78964729	     17.52892946	      0.36600551	     -4.11916840	     -2.10155743	      4.06643501
      0.05000000	      0.49371316	     -0.10411545	    -10.96044219	     -0.81958501	      0.90453434	     -0.35297568	     -7.32704832	      1.19390542	     -4.57007862	      0.05325509	     15.26040197	     -2.53856400	     -1.80722423	     -2.55005128	    -13.82049309	    -13.75204140	     17.52091574	      0.34722137	     -4.12573541	     -2.09664757	      4.09407544
      0.06000000	      0.51710719	     -0.11495898	    -10.95331327	     -0.81959901	      0.90458348	     -0.35344807	     -7.28335856	      1.17233457	     -4.53321874	     -0.06084459	     15.25413068	     -2.56463938	     -1.83088403	     -2.52486292	    -13.80804738	    -13.74453619	     17.52578489	      0.34314542	     -4.14103749	     -2.08390945	      4.05248118
      0.07000000	      0.53039943	     -0.12440741	    -10.96484836	     -0.81959570	      0.90461535	     -0.35388576	     -7.18284648	      1.15029906	     -4.56527752	     -0.25938848	     15.34482333	     -2.65832838	     -1.86865855	     -2.49140351	    -13.77748967	    -13.69607532	     17.52400563	      0.32011581	     -4.13800208	     -2.07589239	      4.08315624
      0.08000000	      0.55144874	     -0.13427877	    -10.95931359	     -0.81959714	      0.90465347	     -0.35432683	     -7.13664771	      1.12949177	     -4.52790894	     -0.37527268	     15.34696122	     -2.68801418	     -1.89016052	     -2.46719001	    -13.76505629	    -13.69117138	     17.52984853	      0.31292138	     -4.14822463	     -2.06809711	      4.03545631
      0.09000000	      0.55555964	     -0.14139332	    -10.96982305	     -0.81959212	      0.90466221	     -0.35473674	     -7.02641125	      1.10737155	     -4.56360063	     -0.57604502	     15.44949773	     -2.78930324	     -1.91449874	     -2.43587530	    -13.73312680	    -13.64821755	     17.53484500	      0.28077270	     -4.13481044	     -2.06293876	      4.06398874
      0.10000000	      0.55530340	     -0.14389411	    -10.97389078	     -0.81959509	      0.90465952	     -0.35513378	     -6.93218314	      1.08319705	     -4.56754392	     -0.73850321	     15.51711890	     -2.88723609	     -1.91794721	     -2.40651219	    -13.70751739	    -13.63446864	     17.54153531	      0.24465920	     -4.11804047	     -2.06346012	      4.04808013
      0.11000000	      0.56718605	     -0.15353111	    -10.96012588	     -0.81958949	      0.90467324	     -0.35552581	     -6.89532404	      1.06816339	     -4.53659789	     -0.82329988	     15.51652634	     -2.90812510	     -1.93235485	     -2.39014324	    -13.70776566	    -13.62242123	     17.54998707	      0.23747634	     -4.12055499	     -2.06110793	      3.99665192
      0.12000000	      0.56011401	     -0.15221018	    -10.95956524	     -0.81959193	      0.90465213	     -0.35590573	     -6.79050340	      1.04242012	     -4.58111284	     -0.99225485	     15.61283788	     -2.99311371	     -1.93724723	     -2.35835987	    -13.67800850	    -13.58780445	     17.56190607	      0.20358676	     -4.09817188	     -2.06770311	      4.00280759
      0.13000000	      0.56588273	     -0.15740520	    -10.94979879	     -0.81958413	      0.90465002	     -0.35627277	     -6.75250852	      1.02405448	     -4.56345187	     -1.06753724	     15.61935233	     -3.01486556	     -1.94769034	     -2.33932261	    -13.67795057	    -13.57232422	     17.56981672	      0.19511634	     -4.09278689	     -2.06889011	      3.94824960
      0.14000000	      0.55075668	     -0.14608181	    -10.93500945	     -0.81958993	      0.90460979	     -0.35664992	     -6.65613380	      0.99190458	     -4.62397699	     -1.20432580	     15.71182374	     -3.08668722	     -1.93951481	     -2.30151747	    -13.63977840	    -13.53705236	     17.57942932	      0.16549558	     -4.06280600	     -2.08859906	      3.94150474
      0.15000000	      0.54986447	     -0.14965973	    -10.92054562	     -0.81957730	      0.90459370	     -0.35700133	     -6.62445238	      0.97504188	     -4.61698972	     -1.25689379	     15.71923104	     -3.10435449	     -1.94515559	     -2.28416346	    -13.64379451	    -13.51646750	     17.58665595	      0.15820663	     -4.05001291	     -2.09217977	      3.89233624
      0.16000000	      0.54173894	     -0.14365742	    -10.90582286	     -0.81956954	      0.90456418	     -0.35735744	     -6.56608914	      0.94801167	     -4.64580719	     -1.34125769	     15.75513080	     -3.13537913	     -1.94903376	     -2.25388779	    -13.62716193	    -13.47828570	     17.60211857	      0.14824205	     -4.02735804	     -2.10473929	      3.86395126
      0.17000000	      0.54304862	     -0.15329975	    -10.88347903	     -0.81955623	      0.90454719	     -0.35770624	     -6.56180474	      0.93952506	     -4.64374425	     -1.35060986	     15.75848191	     -3.13748977	     -1.94950709	     -2.24632333	    -13.63009556	    -13.47274932	     17.60310586	      0.14738234	     -4.02144848	     -2.10449823	      3.86692516
      0.18000000	      0.51605552	     -0.12283110	    -10.86971038	     -0.81956019	      0.90448302	     -0.35806658	     -6.45550760	      0.88815284	     -4.70685478	     -1.47807151	     15.85616817	     -3.18892815	     -1.93856695	     -2.18674937	    -13.57470438	    -13.40995102	     17.61676489	      0.12772866	     -3.97610272	     -2.14020296	      3.85648812
      0.19000000	      0.51037325	     -0.12620075	    -10.85253940	     -0.81953218	      0.90445578	     -0.35840975	     -6.43196818	      0.87197923	     -4.69797582	     -1.51046717	     15.86344799	     -3.19987327	     -1.94265711	     -2.17048427	    -13.58099416	    -13.38339371	     17.62015404	      0.12122911	     -3.95931055	     -2.13814821	      3.82781377
      0.20000000	      0.49981628	     -0.11657485	    -10.84932818	     -0.81950462	      0.90442290	     -0.35874652	     -6.38085631	      0.83960095	     -4.70041543	     -1.57828796	     15.89035733	     -3.22383544	     -1.95302665	     -2.13307568	    -13.56099501	    -13.33236493	     17.63423770	      0.11089562	     -3.93317027	     -2.14576998	      3.82573416
      0.21000000	      0.50029242	     -0.12427761	    -10.83163360	     -0.81947363	      0.90440620	     -0.35908691	     -6.37778002	      0.82796251	     -4.69685843	     -1.58519189	     15.89254696	     -3.22548781	     -1.95439179	     -2.12237894	    -13.56407210	    -13.32804007	     17.63452632	      0.11006079	     -3.92907646	     -2.13718190	      3.82987811
      0.22000000	      0.48361414	     -0.10074488	    -10.84362950	     -0.81946629	      0.90436731	     -0.35939034	     -6.29731388	      0.78030158	     -4.69817995	     -1.68560645	     15.95885171	     -3.27043703	     -1.96960821	     -2.06697487	    -13.53541780	    -13.25115151	     17.63531592	      0.09073664	     -3.90167621	     -2.15995244	      3.84936121
      0.23000000	      0.47895820	     -0.10267930	    -10.83545137	     -0.81944210	      0.90435205	     -0.35969674	     -6.27248546	      0.76331147	     -4.68431288	     -1.72041085	     15.96407737	     -3.28450901	     -1.97824475	     -2.04900105	    -13.54568011	    -13.22149822	     17.63627981	      0.08504247	     -3.89524878	     -2.15385369	      3.82200235
      0.24000000	      0.47128556	     -0.09774062	    -10.83628702	     -0.81943447	      0.90433684	     -0.35998173	     -6.22772216	      0.73869756	     -4.67449872	     -1.77970028	     15.97945572	     -3.30939660	     -1.99137097	     -2.02136116	    -13.54283963	    -13.17530373	     17.63949325	      0.07894984	     -3.88839524	     -2.15531757	      3.81518904
      0.25000000	      0.46848775	     -0.10317505	    -10.82159163	     -0.81941171	      0.90432851	     -0.36026873	     -6.22102404	      0.72906393	     -4.67158078	     -1.78483274	     15.98132270	     -3.31175502	     -1.99119024	     -2.01135727	    -13.54664743	    -13.16878190	     17.63939843	      0.07844232	     -3.89168465	     -2.14793265	      3.81851207
      0.26000000	      0.44970780	     -0.07666504	    -10.83869392	     -0.81942033	      0.90430255	     -0.36050511	     -6.13031558	      0.68264568	     -4.67539454	     -1.89759109	     16.04543601	     -3.37396994	     -2.00023443	     -1.95863815	    -13.53208118	    -13.10042092	     17.62060266	      0.06523372	     -3.87266767	     -2.17577286	      3.83994040
